# xmcd CD database file
#
# Track frame offsets:
#	150
#	22950
#	42169
#	65782
#	80514
#	94706
#	118758
#	141176
#	155999
#	176000
#	200250
#	217103
#	245459
#	262753
#	281945
#	305360
#
# Disc length: 4324 seconds
#
# Revision: 0
# Processed by: cddbd v1.5.2PL0 Copyright (c) Steve Scherf et al.
# Submitted via: CDex 1.51
#
DISCID=ec10e210
DTITLE=Blue Thunb - Blue Thumb "live" - Blue - More Than A Colour
DYEAR=2006
DGENRE=Jazz
TTITLE0=Boom Boom
TTITLE1=Snap Your Fingers
TTITLE2=Soul Shadows
TTITLE3=Do Nothing Till You Hear From me
TTITLE4=Honey Pie
TTITLE5=Little Star
TTITLE6=Brother Where Are You
TTITLE7=Till I Found You
TTITLE8=Halleluja I Love Her So
TTITLE9=Help The Poor
TTITLE10=Ain`t No Sunshine
TTITLE11=The Meaning Of The Blues
TTITLE12=Stop This World
TTITLE13=Murder By Numbers
TTITLE14=Flor D`Luna
TTITLE15=Bye Bye Country Boy
EXTD=YEAR: 2006
EXTT0=
EXTT1=
EXTT2=
EXTT3=
EXTT4=
EXTT5=
EXTT6=
EXTT7=
EXTT8=
EXTT9=
EXTT10=
EXTT11=
EXTT12=
EXTT13=
EXTT14=
EXTT15=
PLAYORDER=
